<svg width="20" height="30" viewBox="0 0 20 30" fill="none" xmlns="http://www.w3.org/2000/svg">
<path d="M2.34375 19V11.9922H0.164062V19H2.34375ZM1.24219 11.0547C1.94531 11.0547 2.50781 10.4688 2.50781 9.76562C2.50781 9.08594 1.94531 8.52344 1.24219 8.52344C0.5625 8.52344 0 9.08594 0 9.76562C0 10.4688 0.5625 11.0547 1.24219 11.0547ZM10.4766 19H10.5V15.1562C10.5 13.2812 10.0781 11.8281 7.875 11.8281C6.82031 11.8281 6.11719 12.4141 5.8125 12.9531H5.78906V11.9922H3.70312V19H5.88281V15.5312C5.88281 14.6172 6.04688 13.75 7.17188 13.75C8.29688 13.75 8.32031 14.7812 8.32031 15.6016V19H10.4766Z" fill="#DBFF00"/>
</svg>
