<svg width="20" height="30" viewBox="0 0 20 30" fill="none" xmlns="http://www.w3.org/2000/svg">
<path d="M9.70703 17.3203L7.51953 16.3828C7.46094 16.3633 7.40234 16.3438 7.32422 16.3438C7.1875 16.3438 7.05078 16.4219 6.97266 16.5195L5.99609 17.7109C4.47266 16.9883 3.26172 15.7773 2.53906 14.2539L3.73047 13.2773C3.82812 13.1992 3.90625 13.0625 3.90625 12.9062C3.90625 12.8477 3.88672 12.7891 3.86719 12.7305L2.92969 10.543C2.85156 10.3672 2.67578 10.25 2.48047 10.25C2.46094 10.25 2.42188 10.2695 2.38281 10.2695L0.351562 10.7383C0.136719 10.7969 0 10.9727 0 11.1875C0 16.207 4.04297 20.25 9.0625 20.25C9.27734 20.25 9.45312 20.1133 9.51172 19.8984L9.98047 17.8672C9.98047 17.8281 9.98047 17.7891 9.98047 17.7695C9.98047 17.5742 9.86328 17.3984 9.70703 17.3203Z" fill="#DBFF00"/>
</svg>
