<svg width="30" height="30" viewBox="0 0 30 30" fill="none" xmlns="http://www.w3.org/2000/svg">
<path d="M24.7266 22.8047L20.8203 18.8984C20.625 18.7422 20.3906 18.625 20.1562 18.625H19.5312C20.5859 17.2578 21.25 15.5391 21.25 13.625C21.25 9.17188 17.5781 5.5 13.125 5.5C8.63281 5.5 5 9.17188 5 13.625C5 18.1172 8.63281 21.75 13.125 21.75C15 21.75 16.7188 21.125 18.125 20.0312V20.6953C18.125 20.9297 18.2031 21.1641 18.3984 21.3594L22.2656 25.2266C22.6562 25.6172 23.2422 25.6172 23.5938 25.2266L24.6875 24.1328C25.0781 23.7812 25.0781 23.1953 24.7266 22.8047ZM13.125 18.625C10.3516 18.625 8.125 16.3984 8.125 13.625C8.125 10.8906 10.3516 8.625 13.125 8.625C15.8594 8.625 18.125 10.8906 18.125 13.625C18.125 16.3984 15.8594 18.625 13.125 18.625Z" fill="white"/>
</svg>
