<svg width="251" height="188" viewBox="0 0 251 188" fill="none" xmlns="http://www.w3.org/2000/svg">
<mask id="mask0_8_242" style="mask-type:alpha" maskUnits="userSpaceOnUse" x="84" y="46" width="82" height="95">
<path d="M84.4301 140.717L165.483 140.717L165.483 46.9063L84.4301 46.9062L84.4301 140.717Z" fill="white"/>
</mask>
<g mask="url(#mask0_8_242)">
<path fill-rule="evenodd" clip-rule="evenodd" d="M84.4301 130.935L165.483 130.935L165.483 140.731L84.4308 140.731L84.4301 130.935Z" fill="black"/>
</g>
<path fill-rule="evenodd" clip-rule="evenodd" d="M103.087 69.0188L89.4622 109.886L99.3267 109.886L108.581 80.9998L113.219 95.4415L107.219 95.4415L104.823 103.685L115.867 103.685L117.858 109.886L128.005 109.886L114.382 69.0188L103.087 69.0188Z" fill="black"/>
<path fill-rule="evenodd" clip-rule="evenodd" d="M143.505 69.0195L129.343 69.0195L129.343 109.887L139.137 109.887L139.137 77.2637L143.083 77.2637C147.663 77.2637 150.27 79.4475 150.27 83.3935C150.27 87.2689 147.663 89.5238 143.083 89.5238L142.449 89.5238L142.449 97.7677L143.505 97.7677C154.074 97.7677 160.275 92.4475 160.275 83.3935C160.275 74.1631 154.074 69.0195 143.505 69.0195Z" fill="black"/>
</svg>
