<svg width="251" height="188" viewBox="0 0 251 188" fill="none" xmlns="http://www.w3.org/2000/svg">
<path d="M51.0883 93.4429C53.439 92.9923 55.398 90.8061 55.398 87.7187C55.3824 84.3845 52.9728 81.2971 48.1498 81.2971L32.6267 81.2971L35.0363 84.3845L35.0363 106.325L48.6904 106.325C53.5174 106.325 56.0014 103.312 56.0014 99.5432C55.9113 96.444 53.7838 93.8072 51.0883 93.4429ZM40.3882 85.9987L47.0958 85.9987C48.9059 85.9987 50.0343 87.0566 50.0343 88.6355C50.0343 90.2145 48.9059 91.2723 47.0958 91.2723L40.3882 91.2723L40.3882 85.9987ZM47.3192 101.671L40.3882 101.671L40.3882 95.9151L47.3192 95.9151C49.3565 95.9151 50.4849 97.1963 50.4849 98.7792C50.4849 100.585 49.2781 101.643 47.3192 101.643L47.3192 101.671Z" fill="black"/>
<path d="M59.1287 106.319L76.838 106.319L76.838 101.649L64.4806 101.649L64.4806 95.9211L74.7262 95.9211L74.7262 91.2469L64.4806 91.2469L64.4806 85.9733L76.9124 85.9733L76.9124 81.3031L59.1287 81.3031L59.1287 106.319Z" fill="black"/>
<path d="M99.629 97.0103L88.0278 81.2639L80.0391 81.2639L82.527 84.4296L82.527 106.359L87.875 106.359L87.875 89.9305L99.8562 106.28L104.981 106.28L104.981 81.2639L99.629 81.2639L99.629 97.0103Z" fill="black"/>
<path d="M126.95 85.5972L126.95 81.3031L108.108 81.3031L108.108 85.9733L119.94 85.9733L108.108 102.025L108.108 106.319L127.177 106.319L127.177 101.649L115.043 101.649L126.95 85.5972Z" fill="black"/>
<path d="M135.656 81.2639L130.304 81.2639L130.304 106.359L135.656 106.359L135.656 81.2639Z" fill="black"/>
<path d="M158.377 97.0103L146.772 81.2639L138.783 81.2639L141.271 84.4296L141.271 106.359L146.623 106.359L146.623 89.9305L158.604 106.28L163.725 106.28L163.725 81.2639L158.377 81.2639L158.377 97.0103Z" fill="black"/>
<path d="M182.222 97.0485L185.012 97.0485L185.012 99.9909C183.569 101.185 181.76 101.849 179.887 101.872C175.44 101.872 172.278 98.4825 172.278 93.8867C172.278 89.2909 175.44 85.8979 179.887 85.8979C181.03 85.9074 182.152 86.2019 183.153 86.7546C184.153 87.3074 184.999 88.1011 185.615 89.0637L189.835 86.7129C188.029 83.8645 184.859 81.3021 179.813 81.3021C172.729 81.3021 166.852 86.1996 166.852 93.8122C166.852 101.425 172.655 106.318 179.813 106.318C181.746 106.351 183.663 105.963 185.432 105.182C187.201 104.402 188.779 103.247 190.058 101.797L190.058 92.5311L178.606 92.5311L182.222 97.0485Z" fill="black"/>
<path d="M209.461 81.2639L199.141 81.2639L201.625 84.4296L201.174 85.6325L193.185 106.359L199.215 106.359L200.782 102.135L211.576 102.135L213.144 106.359L219.169 106.359L209.461 81.2639ZM202.157 97.3903L206.075 86.612L209.993 97.3903L202.157 97.3903Z" fill="black"/>
</svg>
