<svg width="251" height="188" viewBox="0 0 251 188" fill="none" xmlns="http://www.w3.org/2000/svg">
<path d="M97.7668 78.9744C97.7668 85.3849 97.7668 91.7914 97.7668 98.194C97.7668 98.5763 97.7668 98.9574 97.7668 99.3385C97.7668 99.5789 97.7774 99.8205 97.7833 100.061C96.5285 102.113 95.1061 103.931 92.5334 104.452C88.6132 105.254 84.7423 102.333 84.7294 98.3336C84.6966 88.0143 84.7552 77.7033 84.7845 67.3887C84.7845 67.1296 84.8701 66.8704 84.9159 66.6101C85.3357 66.976 85.1504 67.4661 85.1563 67.9C85.1668 76.9985 85.1645 86.0959 85.1645 95.3808C87.3737 92.407 89.4845 89.5692 91.5917 86.7279C93.3988 84.2924 95.1929 81.8474 97.0199 79.4259C97.1711 79.2148 97.2908 78.7399 97.7668 78.9744Z" fill="black"/>
<path d="M143.398 98.902C142.96 98.5502 143.143 98.0518 143.141 97.6191C143.131 88.8908 143.129 80.1624 143.134 71.4341L143.134 70.0503C138.921 75.7013 134.844 81.1705 130.721 86.7018C130.417 86.2164 130.536 85.8329 130.536 85.4741C130.526 79.3764 130.536 73.2786 130.521 67.1809C130.521 66.7177 130.721 66.1607 130.127 65.8593C130.727 65.0268 131.294 64.1672 131.934 63.3663C132.777 62.3103 133.927 61.542 135.225 61.1673C136.524 60.7926 137.906 60.83 139.182 61.2743C140.458 61.7186 141.565 62.548 142.349 63.648C143.134 64.7479 143.558 66.0643 143.562 67.4154C143.562 77.5392 143.553 87.663 143.535 97.7868C143.534 98.1585 143.589 98.5467 143.398 98.902Z" fill="black"/>
<path d="M107.715 87.1767C108.418 87.104 108.045 87.6563 108.05 87.8674C108.086 89.7846 108.073 91.7019 108.073 93.6192L108.073 95.3465C111.709 90.4694 115.201 85.7414 118.744 81.0461C119.346 80.2487 119.744 79.2602 120.685 78.743C120.685 85.1644 120.662 91.5858 120.717 98.006C120.717 98.4985 120.1 99.1552 120.909 99.568C119.36 102.454 117.371 104.718 113.716 104.573C110.498 104.446 107.689 101.785 107.625 98.5818C107.546 94.7824 107.675 90.9795 107.715 87.1767Z" fill="black"/>
<path d="M108.069 86.5235L107.613 86.7581L107.62 66.1677C107.979 65.9074 107.656 65.6775 107.587 65.4371C108.886 63.3651 110.334 61.5076 112.971 61.0233C116.926 60.2939 120.629 63.283 120.667 67.3098C120.675 68.1471 120.63 68.9855 120.61 69.8228C120.324 69.8451 120.221 70.0245 120.215 70.2919C120.042 70.4349 119.829 70.5498 119.698 70.7257C117.661 73.4533 115.63 76.1859 113.607 78.9237C111.747 81.4401 109.913 83.986 108.069 86.5235Z" fill="black"/>
<path d="M162.179 65.6583C161.866 66.1391 161.927 66.6797 161.927 67.2109L161.927 86.8643C160.754 85.3282 159.741 84.0406 158.769 82.7249C155.767 78.6652 152.775 74.6001 149.794 70.5295C149.599 70.2633 149.417 70.0604 149.071 70.0604C149.048 68.7705 148.772 67.497 149.055 66.2048C149.616 63.6332 151.154 61.9035 153.661 61.1906C156.267 60.4494 158.566 61.1565 160.38 63.184C161.059 63.931 161.584 64.8269 162.179 65.6583Z" fill="black"/>
<path d="M172.197 100.549C172.57 99.7747 171.996 99.0864 171.999 98.3359C172.017 92.0189 172.01 85.7019 172.014 79.3837C172.041 79.283 172.08 79.186 172.131 79.0952C173.069 79.6557 173.466 80.6525 174.057 81.4288C177.36 85.7675 180.56 90.1907 183.828 94.5623C184.18 95.0314 184.128 95.8933 185.001 95.9167C185.051 97.0894 185.166 98.2726 184.884 99.4347C184.228 102.064 182.58 103.765 179.942 104.396C177.336 105.02 175.134 104.217 173.394 102.21C172.948 101.692 172.593 101.102 172.197 100.549Z" fill="black"/>
<path d="M125.487 112.606C106.206 112.606 86.9241 112.602 67.642 112.593C67.2327 112.593 66.4694 112.846 66.4694 112.333C66.4694 111.619 67.2539 111.981 67.669 111.981C106.309 111.963 144.949 111.961 183.589 111.975C184 111.975 184.762 111.73 184.762 112.246C184.762 112.962 183.974 112.586 183.562 112.586C164.202 112.608 144.844 112.615 125.487 112.606Z" fill="black"/>
<path d="M79.1676 97.7732C79.1676 87.7588 79.1676 77.7445 79.1676 67.7301C79.1676 67.2012 79.2309 66.6583 78.9612 66.1635C78.4417 63.4336 76.0765 61.1797 73.4345 61.0789C70.1828 60.9616 67.8281 61.9959 66.5886 65.2476C66.1806 65.9711 66.1395 66.7721 66.1395 67.5683C66.1395 77.6905 66.1395 87.8143 66.1395 97.9397C66.1395 98.7406 66.1853 99.5368 66.5886 100.261C67.5268 102.929 70.2051 104.718 72.949 104.517C76.046 104.282 78.4042 102.257 78.96 99.3457C79.2379 98.8449 79.1676 98.302 79.1676 97.7732Z" fill="black"/>
<path d="M185.056 67.4891C185.056 67.0388 185.104 66.5709 184.859 66.1523C183.897 61.7174 179.735 60.1449 176.029 61.5333C173.865 62.3424 172.519 64.011 172.198 66.3798C172.149 66.5991 172.056 66.8195 172.057 67.0388C172.057 70.8694 172.065 74.7001 172.082 78.5307C171.395 78.2457 171.161 77.5515 170.759 77.0238C167.882 73.2468 165.032 69.4474 162.173 65.6492C161.86 66.13 161.921 66.6706 161.921 67.2018L161.921 86.8553C160.748 85.3191 159.735 84.0315 158.763 82.7158C155.761 78.6562 152.769 74.591 149.788 70.5204C149.593 70.2542 149.411 70.0513 149.065 70.0513C149.042 70.4688 149 70.8851 148.998 71.3014C148.998 78.6202 148.998 85.9379 148.998 93.2544C148.998 94.9324 148.955 96.6105 149.015 98.285C149.122 101.24 151.219 103.734 154.031 104.344C156.985 104.984 159.877 103.647 161.273 101.004C161.841 99.929 162.009 98.7763 162.004 97.5791C161.991 94.169 162.004 90.7578 162.004 87.2903C162.512 87.4592 162.628 87.852 162.844 88.1358C165.971 92.2682 169.089 96.4048 172.198 100.546C172.571 99.7719 171.997 99.0835 172 98.3331C172.019 92.016 172.012 85.6979 172.015 79.3808C172.042 79.2801 172.081 79.1832 172.132 79.0924C173.07 79.6529 173.467 80.6496 174.058 81.4259C177.361 85.7647 180.561 90.1879 183.829 94.5595C184.181 95.0286 184.13 95.8904 185.002 95.9139L185.016 95.4519C185.039 95.3015 185.055 95.1501 185.062 94.9981C185.066 85.8296 185.064 76.6599 185.056 67.4891Z" fill="black"/>
<path d="M143.141 97.6165C143.131 88.8882 143.128 80.1598 143.134 71.4315L143.134 70.0478C138.92 75.6987 134.843 81.1679 130.72 86.6992C130.416 86.2138 130.535 85.8303 130.535 85.4715C130.525 79.3738 130.535 73.276 130.521 67.1783C130.521 66.7151 130.72 66.1581 130.127 65.8567C126.968 69.9266 123.888 74.0551 120.886 78.2422C120.823 78.2635 120.757 78.2772 120.69 78.2832C120.665 75.4603 120.638 72.6381 120.611 69.8167C120.325 69.839 120.221 70.0184 120.216 70.2858C120.251 70.427 120.27 70.5718 120.272 70.7173C120.27 70.5718 120.251 70.427 120.216 70.2858C120.042 70.4289 119.83 70.5438 119.698 70.7197C117.661 73.4472 115.631 76.1799 113.608 78.9176C111.748 81.4458 109.914 83.9916 108.069 86.5292L107.613 86.7637L107.62 66.1733L107.034 66.1335L105.729 67.903L101.44 73.629L99.7624 75.8957C99.4004 76.3867 99.0384 76.8776 98.6765 77.3685L97.9729 78.2844C97.5777 77.9947 97.7923 77.5808 97.79 77.229C97.7712 74.145 97.7009 71.0574 97.7982 67.9769C97.9307 63.7483 94.6637 60.2644 89.6155 61.1967C87.2432 61.6352 85.1219 64.0989 84.9132 66.6049C85.333 66.9707 85.1477 67.4609 85.1536 67.8948C85.1642 76.9933 85.1618 86.0906 85.1618 95.3756C87.3711 92.4018 89.4818 89.564 91.589 86.7227C93.3961 84.2871 95.1902 81.8422 97.0172 79.4207C97.1767 79.2096 97.2963 78.7347 97.7724 78.9692C97.7724 85.3796 97.7724 91.7862 97.7724 98.1888C97.7938 98.1906 97.8154 98.1906 97.8369 98.1888C97.8154 98.1906 97.7938 98.1906 97.7724 98.1888C97.7724 98.5711 97.7724 98.9522 97.7724 99.3333C97.7724 99.5737 97.7829 99.8152 97.7888 100.056C98.0346 99.8877 98.2216 99.647 98.3235 99.3673L98.9614 98.4984C99.7049 97.5063 100.448 96.5139 101.189 95.521L101.764 94.7506C103.484 92.4718 105.207 90.1941 106.933 87.9176C107.152 87.6303 107.253 87.1976 107.725 87.1706C108.428 87.0979 108.055 87.6503 108.06 87.8613C108.096 89.7786 108.083 91.6959 108.083 93.6131L108.083 95.3404C111.719 90.4634 115.211 85.7342 118.754 81.0401C119.356 80.2427 119.754 79.2542 120.695 78.737C120.695 85.1584 120.672 91.5798 120.727 98C120.727 98.4925 120.11 99.1492 120.919 99.5619C121.223 99.2395 121.563 98.9428 121.827 98.5898C124.493 95.0355 127.142 91.4695 129.812 87.9188C130.02 87.6409 130.099 87.1835 130.589 87.1906C130.564 91.1072 130.439 95.025 130.653 98.9393C131.132 102.207 133.924 104.614 137.124 104.516C140.442 104.414 143.163 101.982 143.412 98.8959C142.959 98.5441 143.142 98.0492 143.141 97.6165ZM98.673 78.0545C98.7293 78.4497 98.6636 78.7229 98.4666 78.8754C98.42 78.9081 98.3691 78.9341 98.3153 78.9528C98.3691 78.9341 98.42 78.9081 98.4666 78.8754C98.6636 78.7288 98.7293 78.4556 98.673 78.0545ZM108.372 93.5006C108.282 93.5481 108.188 93.5874 108.09 93.6178C108.186 93.587 108.278 93.5478 108.366 93.5006L108.372 93.5006ZM108.693 93.2813C108.817 93.1756 108.93 93.0577 109.03 92.9295C108.928 93.0576 108.814 93.1755 108.69 93.2813L108.693 93.2813Z" fill="black"/>
<path d="M107.587 65.4326C107.403 65.6625 107.219 65.8927 107.036 66.1233L107.622 66.1632C107.979 65.9017 107.662 65.673 107.587 65.4326Z" fill="black"/>
<path d="M67.5068 122.881L66.9421 122.881L66.9421 117.329L67.5068 117.329L67.5068 122.881ZM69.316 119.211C69.3264 119.31 69.3316 119.41 69.3316 119.509C69.3369 119.603 69.3395 119.7 69.3395 119.799L69.3552 119.799C69.4127 119.7 69.4859 119.608 69.5748 119.525C69.6637 119.441 69.763 119.37 69.8728 119.313C69.9826 119.25 70.0976 119.203 70.2179 119.172C70.3434 119.135 70.4662 119.117 70.5865 119.117C71.0571 119.117 71.4048 119.242 71.6296 119.493C71.8544 119.739 71.9669 120.092 71.9669 120.552L71.9669 122.881L71.4492 122.881L71.4492 120.85C71.4492 120.442 71.3786 120.131 71.2375 119.917C71.0963 119.697 70.8349 119.587 70.4532 119.587C70.427 119.587 70.3538 119.598 70.2336 119.619C70.1133 119.64 69.9852 119.697 69.8493 119.791C69.7186 119.885 69.6009 120.027 69.4963 120.215C69.3918 120.403 69.3395 120.665 69.3395 120.999L69.3395 122.881L68.8219 122.881L68.8219 120.019C68.8219 119.919 68.8166 119.794 68.8062 119.642C68.8009 119.491 68.7931 119.347 68.7826 119.211L69.316 119.211ZM74.8896 119.682L74.0191 119.682L74.0191 122.881L73.5014 122.881L73.5014 119.682L72.725 119.682L72.725 119.211L73.5014 119.211L73.5014 118.207C73.5014 117.721 73.6138 117.376 73.8387 117.172C74.0635 116.963 74.3615 116.858 74.7328 116.858C74.806 116.858 74.8792 116.863 74.9524 116.874C75.0308 116.884 75.1066 116.897 75.1798 116.913L75.0857 117.384C75.023 117.368 74.9576 117.355 74.8896 117.344C74.8216 117.334 74.7537 117.329 74.6857 117.329C74.5445 117.329 74.4295 117.352 74.3406 117.399C74.2517 117.446 74.1838 117.514 74.1367 117.603C74.0896 117.687 74.0583 117.786 74.0426 117.901C74.0269 118.016 74.0191 118.139 74.0191 118.27L74.0191 119.211L74.8896 119.211L74.8896 119.682ZM78.6456 121.046C78.6456 120.842 78.6116 120.651 78.5436 120.474C78.4809 120.296 78.3894 120.142 78.2691 120.011C78.1489 119.88 78.0025 119.778 77.8299 119.705C77.6626 119.627 77.4718 119.587 77.2574 119.587C77.043 119.587 76.8496 119.627 76.677 119.705C76.5097 119.778 76.3659 119.88 76.2456 120.011C76.1306 120.142 76.0391 120.296 75.9711 120.474C75.9084 120.651 75.877 120.842 75.877 121.046C75.877 121.25 75.9084 121.441 75.9711 121.619C76.0391 121.797 76.1306 121.951 76.2456 122.081C76.3659 122.212 76.5097 122.317 76.677 122.395C76.8496 122.468 77.043 122.505 77.2574 122.505C77.4718 122.505 77.6626 122.468 77.8299 122.395C78.0025 122.317 78.1489 122.212 78.2691 122.081C78.3894 121.951 78.4809 121.797 78.5436 121.619C78.6116 121.441 78.6456 121.25 78.6456 121.046ZM79.2103 121.046C79.2103 121.323 79.1606 121.58 79.0612 121.815C78.9671 122.05 78.8338 122.254 78.6613 122.427C78.4887 122.599 78.2822 122.735 78.0417 122.834C77.8064 122.929 77.545 122.976 77.2574 122.976C76.975 122.976 76.7136 122.929 76.4731 122.834C76.2378 122.735 76.0339 122.599 75.8613 122.427C75.6888 122.254 75.5529 122.05 75.4535 121.815C75.3594 121.58 75.3123 121.323 75.3123 121.046C75.3123 120.769 75.3594 120.513 75.4535 120.278C75.5529 120.042 75.6888 119.838 75.8613 119.666C76.0339 119.493 76.2378 119.36 76.4731 119.266C76.7136 119.167 76.975 119.117 77.2574 119.117C77.545 119.117 77.8064 119.167 78.0417 119.266C78.2822 119.36 78.4887 119.493 78.6613 119.666C78.8338 119.838 78.9671 120.042 79.0612 120.278C79.1606 120.513 79.2103 120.769 79.2103 121.046ZM80.2045 120.356C80.2045 120.194 80.1993 120.029 80.1888 119.862C80.1836 119.695 80.1784 119.478 80.1732 119.211L80.683 119.211L80.683 119.893L80.6986 119.893C80.7352 119.794 80.7875 119.7 80.8555 119.611C80.9235 119.517 81.0045 119.433 81.0986 119.36C81.198 119.287 81.3104 119.229 81.4359 119.187C81.5666 119.14 81.713 119.117 81.8751 119.117C82.0215 119.117 82.1496 119.133 82.2594 119.164L82.1574 119.674C82.0894 119.648 81.9901 119.635 81.8594 119.635C81.6607 119.635 81.4908 119.674 81.3496 119.752C81.2084 119.825 81.0908 119.922 80.9967 120.042C80.9026 120.157 80.832 120.283 80.7849 120.419C80.7431 120.555 80.7222 120.685 80.7222 120.811L80.7222 122.881L80.2045 122.881L80.2045 120.356ZM82.8916 120.027C82.8916 119.891 82.8864 119.755 82.8759 119.619C82.8707 119.483 82.8628 119.347 82.8524 119.211L83.4092 119.211L83.4092 119.768L83.4249 119.768C83.5504 119.553 83.7229 119.391 83.9425 119.282C84.1674 119.172 84.3896 119.117 84.6092 119.117C84.7085 119.117 84.8131 119.127 84.9229 119.148C85.0379 119.169 85.1477 119.208 85.2523 119.266C85.3569 119.318 85.4536 119.394 85.5425 119.493C85.6366 119.593 85.715 119.721 85.7778 119.878C85.8823 119.642 86.047 119.457 86.2719 119.321C86.5019 119.185 86.7398 119.117 86.9856 119.117C87.4562 119.117 87.8039 119.242 88.0287 119.493C88.2535 119.739 88.3659 120.092 88.3659 120.552L88.3659 122.881L87.8483 122.881L87.8483 120.74C87.8483 120.369 87.7829 120.084 87.6522 119.885C87.5215 119.687 87.2784 119.587 86.9228 119.587C86.7294 119.587 86.5673 119.627 86.4366 119.705C86.3059 119.778 86.1987 119.878 86.115 120.003C86.0366 120.129 85.9791 120.272 85.9425 120.434C85.9059 120.591 85.8876 120.756 85.8876 120.929L85.8876 122.881L85.3699 122.881L85.3699 120.74C85.3699 120.369 85.3046 120.084 85.1739 119.885C85.0432 119.687 84.8 119.587 84.4445 119.587C84.4131 119.587 84.3399 119.598 84.2249 119.619C84.1151 119.64 84 119.697 83.8798 119.791C83.7595 119.885 83.6497 120.027 83.5504 120.215C83.4563 120.403 83.4092 120.665 83.4092 120.999L83.4092 122.881L82.8916 122.881L82.8916 120.027ZM91.6565 121.054C91.5258 121.054 91.3611 121.062 91.1624 121.078C90.969 121.088 90.7807 121.119 90.5977 121.172C90.42 121.219 90.2657 121.295 90.135 121.399C90.0095 121.504 89.9468 121.648 89.9468 121.831C89.9468 121.951 89.9703 122.055 90.0174 122.144C90.0696 122.228 90.1376 122.298 90.2213 122.356C90.3049 122.408 90.3964 122.447 90.4958 122.474C90.6003 122.495 90.7049 122.505 90.8095 122.505C90.9977 122.505 91.1598 122.474 91.2957 122.411C91.4369 122.348 91.5546 122.264 91.6487 122.16C91.7428 122.05 91.8108 121.925 91.8526 121.783C91.8996 121.637 91.9232 121.483 91.9232 121.321L91.9232 121.054L91.6565 121.054ZM91.9232 120.631L91.9232 120.536C91.9232 119.904 91.6095 119.587 90.982 119.587C90.5533 119.587 90.1794 119.731 89.8605 120.019L89.5468 119.65C89.8919 119.295 90.4095 119.117 91.0997 119.117C91.2774 119.117 91.4474 119.143 91.6095 119.195C91.7768 119.248 91.9206 119.329 92.0408 119.438C92.1611 119.543 92.2578 119.676 92.331 119.838C92.4042 120.001 92.4408 120.194 92.4408 120.419L92.4408 122.058C92.4408 122.199 92.446 122.348 92.4565 122.505C92.4722 122.657 92.4879 122.782 92.5036 122.881L92.0016 122.881C91.9859 122.793 91.9728 122.696 91.9624 122.591C91.9572 122.487 91.9545 122.385 91.9545 122.285L91.9389 122.285C91.7872 122.531 91.6068 122.709 91.3977 122.819C91.1938 122.923 90.9428 122.976 90.6448 122.976C90.4827 122.976 90.3258 122.952 90.1742 122.905C90.0226 122.863 89.8866 122.798 89.7664 122.709C89.6513 122.615 89.5572 122.502 89.484 122.372C89.4161 122.236 89.3821 122.079 89.3821 121.901C89.3821 121.603 89.4579 121.37 89.6095 121.203C89.7664 121.031 89.9598 120.902 90.1899 120.819C90.4252 120.735 90.6735 120.683 90.935 120.662C91.2016 120.641 91.4448 120.631 91.6644 120.631L91.9232 120.631ZM95.5353 119.682L94.4765 119.682L94.4765 121.846C94.4765 121.982 94.4895 122.095 94.5157 122.183C94.5418 122.267 94.5784 122.332 94.6255 122.38C94.6725 122.427 94.7274 122.461 94.7902 122.481C94.8582 122.497 94.9314 122.505 95.0098 122.505C95.0987 122.505 95.1902 122.492 95.2843 122.466C95.3784 122.44 95.4647 122.406 95.5431 122.364L95.5666 122.842C95.3732 122.931 95.1405 122.976 94.8686 122.976C94.7693 122.976 94.6647 122.963 94.5549 122.936C94.4503 122.91 94.3536 122.861 94.2647 122.787C94.1758 122.714 94.1026 122.615 94.0451 122.489C93.9876 122.364 93.9588 122.199 93.9588 121.995L93.9588 119.682L93.1824 119.682L93.1824 119.211L93.9588 119.211L93.9588 118.176L94.4765 118.176L94.4765 119.211L95.5353 119.211L95.5353 119.682ZM96.9943 117.799C96.9943 117.909 96.9551 118.001 96.8766 118.074C96.7982 118.142 96.7119 118.176 96.6178 118.176C96.5237 118.176 96.4374 118.142 96.359 118.074C96.2806 118.001 96.2414 117.909 96.2414 117.799C96.2414 117.689 96.2806 117.601 96.359 117.533C96.4374 117.459 96.5237 117.423 96.6178 117.423C96.7119 117.423 96.7982 117.459 96.8766 117.533C96.9551 117.601 96.9943 117.689 96.9943 117.799ZM96.8766 122.881L96.359 122.881L96.359 119.211L96.8766 119.211L96.8766 122.881ZM101.271 121.046C101.271 120.842 101.237 120.651 101.169 120.474C101.106 120.296 101.014 120.142 100.894 120.011C100.774 119.88 100.627 119.778 100.455 119.705C100.288 119.627 100.097 119.587 99.8823 119.587C99.6679 119.587 99.4745 119.627 99.3019 119.705C99.1346 119.778 98.9908 119.88 98.8706 120.011C98.7555 120.142 98.664 120.296 98.5961 120.474C98.5333 120.651 98.502 120.842 98.502 121.046C98.502 121.25 98.5333 121.441 98.5961 121.619C98.664 121.797 98.7555 121.951 98.8706 122.081C98.9908 122.212 99.1346 122.317 99.3019 122.395C99.4745 122.468 99.6679 122.505 99.8823 122.505C100.097 122.505 100.288 122.468 100.455 122.395C100.627 122.317 100.774 122.212 100.894 122.081C101.014 121.951 101.106 121.797 101.169 121.619C101.237 121.441 101.271 121.25 101.271 121.046ZM101.835 121.046C101.835 121.323 101.786 121.58 101.686 121.815C101.592 122.05 101.459 122.254 101.286 122.427C101.114 122.599 100.907 122.735 100.667 122.834C100.431 122.929 100.17 122.976 99.8823 122.976C99.6 122.976 99.3385 122.929 99.098 122.834C98.8627 122.735 98.6588 122.599 98.4863 122.427C98.3137 122.254 98.1778 122.05 98.0784 121.815C97.9843 121.58 97.9373 121.323 97.9373 121.046C97.9373 120.769 97.9843 120.513 98.0784 120.278C98.1778 120.042 98.3137 119.838 98.4863 119.666C98.6588 119.493 98.8627 119.36 99.098 119.266C99.3385 119.167 99.6 119.117 99.8823 119.117C100.17 119.117 100.431 119.167 100.667 119.266C100.907 119.36 101.114 119.493 101.286 119.666C101.459 119.838 101.592 120.042 101.686 120.278C101.786 120.513 101.835 120.769 101.835 121.046ZM103.269 119.211C103.279 119.31 103.284 119.41 103.284 119.509C103.29 119.603 103.292 119.7 103.292 119.799L103.308 119.799C103.365 119.7 103.439 119.608 103.527 119.525C103.616 119.441 103.716 119.37 103.826 119.313C103.935 119.25 104.05 119.203 104.171 119.172C104.296 119.135 104.419 119.117 104.539 119.117C105.01 119.117 105.357 119.242 105.582 119.493C105.807 119.739 105.92 120.092 105.92 120.552L105.92 122.881L105.402 122.881L105.402 120.85C105.402 120.442 105.331 120.131 105.19 119.917C105.049 119.697 104.788 119.587 104.406 119.587C104.38 119.587 104.307 119.598 104.186 119.619C104.066 119.64 103.938 119.697 103.802 119.791C103.671 119.885 103.554 120.027 103.449 120.215C103.344 120.403 103.292 120.665 103.292 120.999L103.292 122.881L102.775 122.881L102.775 120.019C102.775 119.919 102.769 119.794 102.759 119.642C102.754 119.491 102.746 119.347 102.735 119.211L103.269 119.211ZM112.241 121.846L114.115 117.329L114.978 117.329L114.978 122.881L114.413 122.881L114.413 118.082L114.398 118.082L112.39 122.881L112.092 122.881L110.084 118.082L110.068 118.082L110.068 122.881L109.504 122.881L109.504 117.329L110.366 117.329L112.241 121.846ZM118.379 121.054C118.248 121.054 118.084 121.062 117.885 121.078C117.692 121.088 117.503 121.119 117.32 121.172C117.142 121.219 116.988 121.295 116.858 121.399C116.732 121.504 116.669 121.648 116.669 121.831C116.669 121.951 116.693 122.055 116.74 122.144C116.792 122.228 116.86 122.298 116.944 122.356C117.027 122.408 117.119 122.447 117.218 122.474C117.323 122.495 117.427 122.505 117.532 122.505C117.72 122.505 117.882 122.474 118.018 122.411C118.159 122.348 118.277 122.264 118.371 122.16C118.465 122.05 118.533 121.925 118.575 121.783C118.622 121.637 118.646 121.483 118.646 121.321L118.646 121.054L118.379 121.054ZM118.646 120.631L118.646 120.536C118.646 119.904 118.332 119.587 117.705 119.587C117.276 119.587 116.902 119.731 116.583 120.019L116.269 119.65C116.614 119.295 117.132 119.117 117.822 119.117C118 119.117 118.17 119.143 118.332 119.195C118.499 119.248 118.643 119.329 118.763 119.438C118.884 119.543 118.98 119.676 119.054 119.838C119.127 120.001 119.163 120.194 119.163 120.419L119.163 122.058C119.163 122.199 119.169 122.348 119.179 122.505C119.195 122.657 119.21 122.782 119.226 122.881L118.724 122.881C118.708 122.793 118.695 122.696 118.685 122.591C118.68 122.487 118.677 122.385 118.677 122.285L118.661 122.285C118.51 122.531 118.329 122.709 118.12 122.819C117.916 122.923 117.665 122.976 117.367 122.976C117.205 122.976 117.048 122.952 116.897 122.905C116.745 122.863 116.609 122.798 116.489 122.709C116.374 122.615 116.28 122.502 116.207 122.372C116.139 122.236 116.105 122.079 116.105 121.901C116.105 121.603 116.18 121.37 116.332 121.203C116.489 121.031 116.682 120.902 116.912 120.819C117.148 120.735 117.396 120.683 117.658 120.662C117.924 120.641 118.167 120.631 118.387 120.631L118.646 120.631ZM120.854 119.211C120.864 119.31 120.87 119.41 120.87 119.509C120.875 119.603 120.877 119.7 120.877 119.799L120.893 119.799C120.951 119.7 121.024 119.608 121.113 119.525C121.202 119.441 121.301 119.37 121.411 119.313C121.521 119.25 121.636 119.203 121.756 119.172C121.881 119.135 122.004 119.117 122.124 119.117C122.595 119.117 122.943 119.242 123.168 119.493C123.392 119.739 123.505 120.092 123.505 120.552L123.505 122.881L122.987 122.881L122.987 120.85C122.987 120.442 122.917 120.131 122.775 119.917C122.634 119.697 122.373 119.587 121.991 119.587C121.965 119.587 121.892 119.598 121.772 119.619C121.651 119.64 121.523 119.697 121.387 119.791C121.257 119.885 121.139 120.027 121.034 120.215C120.93 120.403 120.877 120.665 120.877 120.999L120.877 122.881L120.36 122.881L120.36 120.019C120.36 119.919 120.355 119.794 120.344 119.642C120.339 119.491 120.331 119.347 120.321 119.211L120.854 119.211ZM126.804 121.054C126.673 121.054 126.509 121.062 126.31 121.078C126.116 121.088 125.928 121.119 125.745 121.172C125.567 121.219 125.413 121.295 125.283 121.399C125.157 121.504 125.094 121.648 125.094 121.831C125.094 121.951 125.118 122.055 125.165 122.144C125.217 122.228 125.285 122.298 125.369 122.356C125.452 122.408 125.544 122.447 125.643 122.474C125.748 122.495 125.852 122.505 125.957 122.505C126.145 122.505 126.307 122.474 126.443 122.411C126.584 122.348 126.702 122.264 126.796 122.16C126.89 122.05 126.958 121.925 127 121.783C127.047 121.637 127.071 121.483 127.071 121.321L127.071 121.054L126.804 121.054ZM127.071 120.631L127.071 120.536C127.071 119.904 126.757 119.587 126.13 119.587C125.701 119.587 125.327 119.731 125.008 120.019L124.694 119.65C125.039 119.295 125.557 119.117 126.247 119.117C126.425 119.117 126.595 119.143 126.757 119.195C126.924 119.248 127.068 119.329 127.188 119.438C127.309 119.543 127.405 119.676 127.479 119.838C127.552 120.001 127.588 120.194 127.588 120.419L127.588 122.058C127.588 122.199 127.594 122.348 127.604 122.505C127.62 122.657 127.635 122.782 127.651 122.881L127.149 122.881C127.133 122.793 127.12 122.696 127.11 122.591C127.105 122.487 127.102 122.385 127.102 122.285L127.086 122.285C126.935 122.531 126.754 122.709 126.545 122.819C126.341 122.923 126.09 122.976 125.792 122.976C125.63 122.976 125.473 122.952 125.322 122.905C125.17 122.863 125.034 122.798 124.914 122.709C124.799 122.615 124.705 122.502 124.632 122.372C124.564 122.236 124.53 122.079 124.53 121.901C124.53 121.603 124.605 121.37 124.757 121.203C124.914 121.031 125.107 120.902 125.337 120.819C125.573 120.735 125.821 120.683 126.083 120.662C126.349 120.641 126.592 120.631 126.812 120.631L127.071 120.631ZM129.161 120.999C129.161 121.193 129.195 121.376 129.263 121.548C129.336 121.715 129.433 121.865 129.553 121.995C129.679 122.121 129.823 122.223 129.985 122.301C130.152 122.374 130.332 122.411 130.526 122.411C130.714 122.411 130.892 122.377 131.059 122.309C131.232 122.241 131.383 122.147 131.514 122.027C131.645 121.901 131.744 121.752 131.812 121.58C131.885 121.407 131.919 121.214 131.914 120.999C131.914 120.806 131.883 120.625 131.82 120.458C131.757 120.285 131.666 120.136 131.546 120.011C131.425 119.88 131.279 119.778 131.106 119.705C130.934 119.627 130.74 119.587 130.526 119.587C130.332 119.587 130.152 119.627 129.985 119.705C129.823 119.778 129.679 119.88 129.553 120.011C129.433 120.136 129.336 120.285 129.263 120.458C129.195 120.625 129.161 120.806 129.161 120.999ZM129.067 123.619C129.219 123.823 129.415 123.985 129.655 124.105C129.901 124.23 130.173 124.293 130.471 124.293C130.732 124.293 130.955 124.254 131.138 124.176C131.321 124.102 131.467 124 131.577 123.87C131.692 123.739 131.773 123.585 131.82 123.407C131.872 123.234 131.898 123.049 131.898 122.85L131.898 122.191L131.883 122.191C131.715 122.442 131.512 122.62 131.271 122.725C131.03 122.829 130.777 122.881 130.51 122.881C130.244 122.881 129.993 122.834 129.757 122.74C129.527 122.646 129.326 122.518 129.153 122.356C128.981 122.189 128.845 121.99 128.746 121.76C128.646 121.53 128.597 121.282 128.597 121.015C128.597 120.748 128.644 120.5 128.738 120.27C128.832 120.04 128.96 119.838 129.122 119.666C129.289 119.493 129.485 119.36 129.71 119.266C129.94 119.167 130.191 119.117 130.463 119.117C130.573 119.117 130.688 119.127 130.808 119.148C130.934 119.169 131.057 119.206 131.177 119.258C131.302 119.31 131.425 119.384 131.546 119.478C131.666 119.567 131.778 119.682 131.883 119.823L131.898 119.823L131.898 119.211L132.416 119.211L132.416 122.85C132.416 123.049 132.39 123.261 132.338 123.485C132.291 123.71 132.194 123.917 132.047 124.105C131.906 124.293 131.708 124.45 131.451 124.576C131.195 124.701 130.861 124.764 130.448 124.764C130.082 124.764 129.755 124.704 129.467 124.583C129.18 124.463 128.918 124.278 128.683 124.027L129.067 123.619ZM136.434 120.764C136.434 120.414 136.33 120.131 136.12 119.917C135.911 119.697 135.619 119.587 135.242 119.587C135.075 119.587 134.913 119.621 134.756 119.689C134.599 119.752 134.46 119.838 134.34 119.948C134.225 120.058 134.131 120.184 134.058 120.325C133.99 120.466 133.956 120.612 133.956 120.764L136.434 120.764ZM133.94 121.187C133.956 121.37 134 121.543 134.074 121.705C134.147 121.867 134.243 122.008 134.364 122.129C134.484 122.244 134.623 122.335 134.779 122.403C134.936 122.471 135.106 122.505 135.289 122.505C135.566 122.505 135.804 122.442 136.003 122.317C136.207 122.186 136.361 122.037 136.466 121.87L136.866 122.199C136.646 122.476 136.403 122.675 136.136 122.795C135.875 122.915 135.592 122.976 135.289 122.976C135.017 122.976 134.764 122.929 134.528 122.834C134.298 122.735 134.1 122.599 133.932 122.427C133.765 122.254 133.632 122.05 133.532 121.815C133.438 121.58 133.391 121.323 133.391 121.046C133.391 120.769 133.438 120.513 133.532 120.278C133.626 120.042 133.757 119.838 133.924 119.666C134.092 119.493 134.288 119.36 134.513 119.266C134.738 119.167 134.981 119.117 135.242 119.117C135.519 119.117 135.768 119.167 135.987 119.266C136.207 119.365 136.39 119.499 136.536 119.666C136.688 119.828 136.803 120.021 136.881 120.246C136.96 120.466 136.999 120.701 136.999 120.952L136.999 121.187L133.94 121.187ZM137.937 120.027C137.937 119.891 137.932 119.755 137.922 119.619C137.917 119.483 137.909 119.347 137.898 119.211L138.455 119.211L138.455 119.768L138.471 119.768C138.596 119.553 138.769 119.391 138.988 119.282C139.213 119.172 139.435 119.117 139.655 119.117C139.754 119.117 139.859 119.127 139.969 119.148C140.084 119.169 140.194 119.208 140.298 119.266C140.403 119.318 140.499 119.394 140.588 119.493C140.682 119.593 140.761 119.721 140.824 119.878C140.928 119.642 141.093 119.457 141.318 119.321C141.548 119.185 141.786 119.117 142.031 119.117C142.502 119.117 142.85 119.242 143.075 119.493C143.299 119.739 143.412 120.092 143.412 120.552L143.412 122.881L142.894 122.881L142.894 120.74C142.894 120.369 142.829 120.084 142.698 119.885C142.567 119.687 142.324 119.587 141.969 119.587C141.775 119.587 141.613 119.627 141.482 119.705C141.352 119.778 141.245 119.878 141.161 120.003C141.082 120.129 141.025 120.272 140.988 120.434C140.952 120.591 140.933 120.756 140.933 120.929L140.933 122.881L140.416 122.881L140.416 120.74C140.416 120.369 140.35 120.084 140.22 119.885C140.089 119.687 139.846 119.587 139.49 119.587C139.459 119.587 139.386 119.598 139.271 119.619C139.161 119.64 139.046 119.697 138.926 119.791C138.805 119.885 138.696 120.027 138.596 120.215C138.502 120.403 138.455 120.665 138.455 120.999L138.455 122.881L137.937 122.881L137.937 120.027ZM147.471 120.764C147.471 120.414 147.366 120.131 147.157 119.917C146.948 119.697 146.655 119.587 146.279 119.587C146.112 119.587 145.949 119.621 145.793 119.689C145.636 119.752 145.497 119.838 145.377 119.948C145.262 120.058 145.168 120.184 145.095 120.325C145.027 120.466 144.993 120.612 144.993 120.764L147.471 120.764ZM144.977 121.187C144.993 121.37 145.037 121.543 145.11 121.705C145.183 121.867 145.28 122.008 145.4 122.129C145.521 122.244 145.659 122.335 145.816 122.403C145.973 122.471 146.143 122.505 146.326 122.505C146.603 122.505 146.841 122.442 147.04 122.317C147.244 122.186 147.398 122.037 147.502 121.87L147.902 122.199C147.683 122.476 147.44 122.675 147.173 122.795C146.911 122.915 146.629 122.976 146.326 122.976C146.054 122.976 145.8 122.929 145.565 122.834C145.335 122.735 145.136 122.599 144.969 122.427C144.802 122.254 144.668 122.05 144.569 121.815C144.475 121.58 144.428 121.323 144.428 121.046C144.428 120.769 144.475 120.513 144.569 120.278C144.663 120.042 144.794 119.838 144.961 119.666C145.129 119.493 145.325 119.36 145.549 119.266C145.774 119.167 146.017 119.117 146.279 119.117C146.556 119.117 146.804 119.167 147.024 119.266C147.244 119.365 147.427 119.499 147.573 119.666C147.725 119.828 147.84 120.021 147.918 120.246C147.996 120.466 148.036 120.701 148.036 120.952L148.036 121.187L144.977 121.187ZM149.468 119.211C149.479 119.31 149.484 119.41 149.484 119.509C149.489 119.603 149.492 119.7 149.492 119.799L149.507 119.799C149.565 119.7 149.638 119.608 149.727 119.525C149.816 119.441 149.915 119.37 150.025 119.313C150.135 119.25 150.25 119.203 150.37 119.172C150.496 119.135 150.619 119.117 150.739 119.117C151.209 119.117 151.557 119.242 151.782 119.493C152.007 119.739 152.119 120.092 152.119 120.552L152.119 122.881L151.602 122.881L151.602 120.85C151.602 120.442 151.531 120.131 151.39 119.917C151.249 119.697 150.987 119.587 150.605 119.587C150.579 119.587 150.506 119.598 150.386 119.619C150.266 119.64 150.138 119.697 150.002 119.791C149.871 119.885 149.753 120.027 149.649 120.215C149.544 120.403 149.492 120.665 149.492 120.999L149.492 122.881L148.974 122.881L148.974 120.019C148.974 119.919 148.969 119.794 148.958 119.642C148.953 119.491 148.945 119.347 148.935 119.211L149.468 119.211ZM155.23 119.682L154.171 119.682L154.171 121.846C154.171 121.982 154.184 122.095 154.211 122.183C154.237 122.267 154.273 122.332 154.32 122.38C154.367 122.427 154.422 122.461 154.485 122.481C154.553 122.497 154.626 122.505 154.705 122.505C154.794 122.505 154.885 122.492 154.979 122.466C155.073 122.44 155.16 122.406 155.238 122.364L155.262 122.842C155.068 122.931 154.835 122.976 154.564 122.976C154.464 122.976 154.36 122.963 154.25 122.936C154.145 122.91 154.048 122.861 153.96 122.787C153.871 122.714 153.798 122.615 153.74 122.489C153.682 122.364 153.654 122.199 153.654 121.995L153.654 119.682L152.877 119.682L152.877 119.211L153.654 119.211L153.654 118.176L154.171 118.176L154.171 119.211L155.23 119.211L155.23 119.682ZM162.323 122.034L162.339 122.034L162.339 117.329L162.903 117.329L162.903 122.881L162.197 122.881L158.888 118.129L158.872 118.129L158.872 122.881L158.307 122.881L158.307 117.329L159.013 117.329L162.323 122.034ZM167.078 120.764C167.078 120.414 166.974 120.131 166.764 119.917C166.555 119.697 166.263 119.587 165.886 119.587C165.719 119.587 165.557 119.621 165.4 119.689C165.243 119.752 165.104 119.838 164.984 119.948C164.869 120.058 164.775 120.184 164.702 120.325C164.634 120.466 164.6 120.612 164.6 120.764L167.078 120.764ZM164.584 121.187C164.6 121.37 164.644 121.543 164.717 121.705C164.791 121.867 164.887 122.008 165.008 122.129C165.128 122.244 165.266 122.335 165.423 122.403C165.58 122.471 165.75 122.505 165.933 122.505C166.21 122.505 166.448 122.442 166.647 122.317C166.851 122.186 167.005 122.037 167.11 121.87L167.51 122.199C167.29 122.476 167.047 122.675 166.78 122.795C166.519 122.915 166.236 122.976 165.933 122.976C165.661 122.976 165.408 122.929 165.172 122.834C164.942 122.735 164.744 122.599 164.576 122.427C164.409 122.254 164.276 122.05 164.176 121.815C164.082 121.58 164.035 121.323 164.035 121.046C164.035 120.769 164.082 120.513 164.176 120.278C164.27 120.042 164.401 119.838 164.568 119.666C164.736 119.493 164.932 119.36 165.157 119.266C165.382 119.167 165.625 119.117 165.886 119.117C166.163 119.117 166.412 119.167 166.631 119.266C166.851 119.365 167.034 119.499 167.18 119.666C167.332 119.828 167.447 120.021 167.525 120.246C167.604 120.466 167.643 120.701 167.643 120.952L167.643 121.187L164.584 121.187ZM170.479 119.682L169.421 119.682L169.421 121.846C169.421 121.982 169.434 122.095 169.46 122.183C169.486 122.267 169.523 122.332 169.57 122.38C169.617 122.427 169.672 122.461 169.734 122.481C169.802 122.497 169.875 122.505 169.954 122.505C170.043 122.505 170.134 122.492 170.228 122.466C170.323 122.44 170.409 122.406 170.487 122.364L170.511 122.842C170.317 122.931 170.085 122.976 169.813 122.976C169.713 122.976 169.609 122.963 169.499 122.936C169.394 122.91 169.298 122.861 169.209 122.787C169.12 122.714 169.047 122.615 168.989 122.489C168.932 122.364 168.903 122.199 168.903 121.995L168.903 119.682L168.127 119.682L168.127 119.211L168.903 119.211L168.903 118.176L169.421 118.176L169.421 119.211L170.479 119.211L170.479 119.682ZM171.342 119.211L172.189 122.191L172.205 122.191L173.185 119.211L173.719 119.211L174.699 122.191L174.715 122.191L175.562 119.211L176.174 119.211L175.013 122.881L174.432 122.881L173.46 119.87L173.444 119.87L172.472 122.881L171.891 122.881L170.731 119.211L171.342 119.211ZM179.991 121.046C179.991 120.842 179.957 120.651 179.889 120.474C179.826 120.296 179.734 120.142 179.614 120.011C179.494 119.88 179.347 119.778 179.175 119.705C179.008 119.627 178.817 119.587 178.602 119.587C178.388 119.587 178.195 119.627 178.022 119.705C177.855 119.778 177.711 119.88 177.591 120.011C177.476 120.142 177.384 120.296 177.316 120.474C177.253 120.651 177.222 120.842 177.222 121.046C177.222 121.25 177.253 121.441 177.316 121.619C177.384 121.797 177.476 121.951 177.591 122.081C177.711 122.212 177.855 122.317 178.022 122.395C178.195 122.468 178.388 122.505 178.602 122.505C178.817 122.505 179.008 122.468 179.175 122.395C179.347 122.317 179.494 122.212 179.614 122.081C179.734 121.951 179.826 121.797 179.889 121.619C179.957 121.441 179.991 121.25 179.991 121.046ZM180.555 121.046C180.555 121.323 180.506 121.58 180.406 121.815C180.312 122.05 180.179 122.254 180.006 122.427C179.834 122.599 179.627 122.735 179.387 122.834C179.151 122.929 178.89 122.976 178.602 122.976C178.32 122.976 178.059 122.929 177.818 122.834C177.583 122.735 177.379 122.599 177.206 122.427C177.034 122.254 176.898 122.05 176.798 121.815C176.704 121.58 176.657 121.323 176.657 121.046C176.657 120.769 176.704 120.513 176.798 120.278C176.898 120.042 177.034 119.838 177.206 119.666C177.379 119.493 177.583 119.36 177.818 119.266C178.059 119.167 178.32 119.117 178.602 119.117C178.89 119.117 179.151 119.167 179.387 119.266C179.627 119.36 179.834 119.493 180.006 119.666C180.179 119.838 180.312 120.042 180.406 120.278C180.506 120.513 180.555 120.769 180.555 121.046ZM181.55 120.356C181.55 120.194 181.544 120.029 181.534 119.862C181.529 119.695 181.523 119.478 181.518 119.211L182.028 119.211L182.028 119.893L182.044 119.893C182.08 119.794 182.133 119.7 182.2 119.611C182.268 119.517 182.349 119.433 182.444 119.36C182.543 119.287 182.655 119.229 182.781 119.187C182.912 119.14 183.058 119.117 183.22 119.117C183.366 119.117 183.495 119.133 183.604 119.164L183.502 119.674C183.434 119.648 183.335 119.635 183.204 119.635C183.006 119.635 182.836 119.674 182.695 119.752C182.553 119.825 182.436 119.922 182.342 120.042C182.248 120.157 182.177 120.283 182.13 120.419C182.088 120.555 182.067 120.685 182.067 120.811L182.067 122.881L181.55 122.881L181.55 120.356ZM184.616 120.866L186.35 119.211L187.126 119.211L185.299 120.889L187.322 122.881L186.522 122.881L184.616 120.952L184.616 122.881L184.099 122.881L184.099 116.952L184.616 116.952L184.616 120.866Z" fill="black"/>
</svg>
