<svg width="251" height="188" viewBox="0 0 251 188" fill="none" xmlns="http://www.w3.org/2000/svg">
<path d="M73.1598 91.8988L72.8211 93.6263L72.7194 93.6263C72.2791 92.6779 71.0597 91.323 68.3499 91.323C63.9803 91.323 59.5091 94.7103 58.5268 100.028C57.6799 104.703 59.9155 108.801 65.0981 108.801C66.9949 108.801 69.1628 108.056 70.3145 106.464L70.4161 106.464L70.1112 108.225L74.955 108.225L77.9697 91.8988L73.1598 91.8988ZM71.5678 100.028C71.2629 101.62 69.7386 104.229 66.6901 104.229C63.7093 104.229 63.0996 101.62 63.3706 100.096C63.7093 98.233 65.3691 95.8958 68.2144 95.8958C70.9919 95.9297 71.9404 98.1314 71.5678 100.028Z" fill="black"/>
<path d="M80.7128 91.8992L85.2517 91.8992L84.9469 93.6267L85.0485 93.6267C85.6243 92.8476 86.776 91.3234 89.5536 91.3234L88.639 96.2688C86.3357 96.3026 84.6759 96.7769 84.2356 99.2835L82.5758 108.226L77.6981 108.226L80.7128 91.8992Z" fill="black"/>
<path d="M92.8064 85.5308L97.718 85.5308L95.4146 97.8266L95.4824 97.8266L101.139 91.8988L106.897 91.8988L99.4455 99.0799L103.713 108.225L98.1922 108.225L95.042 100.367L94.9404 100.367L93.5177 108.225L88.6062 108.225L92.8064 85.5308Z" fill="black"/>
<path d="M114.722 91.3213C109.777 91.3213 105.373 95.5893 104.56 100.128C103.646 104.972 106.931 108.766 111.606 108.766C113.265 108.766 114.993 108.258 116.483 107.275C118.042 106.327 119.464 104.938 120.548 103.109L115.569 103.109C114.756 103.956 113.807 104.633 112.317 104.633C110.42 104.633 108.998 103.482 109.099 101.551L121.327 101.551C121.463 101.178 121.564 100.873 121.666 100.264C122.614 95.2844 119.701 91.3213 114.722 91.3213ZM109.777 98.2652C110.149 97.3168 111.504 95.4538 114.045 95.4538C116.585 95.4538 117.195 97.2829 117.195 98.2652L109.777 98.2652Z" fill="black"/>
<path d="M52.057 85.5321L43.4533 98.4715L43.3856 98.4715L43.3856 85.5321L39.2192 85.5321L23.9426 108.227L29.8704 108.227L38.4402 95.2874L38.5079 95.2874L38.5079 108.227L42.7081 108.227L51.2779 95.2874L51.3457 95.2874L51.3457 108.227L56.2572 108.227L56.2572 85.5321L52.057 85.5321Z" fill="black"/>
<path d="M134.062 91.8986L130.98 91.8986L131.894 87.0548L127.626 87.0548L127.288 88.9178C126.915 91.0518 125.56 91.6954 123.799 91.8986L123.765 91.8986L123.02 95.5907L125.425 95.5907L123.087 108.191L127.965 108.191L130.302 95.5907L133.419 95.5907L134.062 91.8986Z" fill="black"/>
<path d="M209.566 102.061C207.974 105.753 204.146 108.801 199.743 108.801C194.798 108.801 191.715 104.906 192.596 100.028C193.51 95.2524 197.914 91.357 202.825 91.357C207.127 91.357 210.108 94.2362 210.21 98.2332L205.264 98.2332C204.959 97.0815 204.214 95.9298 202.148 95.9298C199.845 95.8282 197.948 97.6912 197.507 100.062C197.067 102.467 198.286 104.229 200.624 104.229C202.622 104.229 203.842 103.077 204.553 102.027L209.566 102.061ZM169.156 79.7386L159.671 85.5309L162.347 85.5309L153.744 98.4703L153.642 98.4703L153.642 85.5309L149.442 85.5309L140.872 98.4703L140.771 98.4703L140.771 85.5309L135.893 85.5309L135.893 108.226L140.161 108.226L148.764 95.2862L148.866 95.2862L148.866 108.226L153.066 108.226L168.275 85.5309L170.68 85.5309L169.156 79.7386ZM178.403 108.226L173.559 108.226L173.864 106.464L173.763 106.464C172.611 108.056 170.443 108.801 168.546 108.801C163.364 108.801 161.128 104.737 161.975 100.028C162.923 94.7104 167.428 91.3231 171.798 91.3231C174.474 91.3231 175.727 92.6442 176.168 93.6265L176.269 93.6265L176.608 91.899L181.452 91.899L178.403 108.226ZM170.206 104.263C173.221 104.263 174.745 101.654 175.084 100.062C175.422 98.0977 174.508 95.9298 171.73 95.9298C168.919 95.9298 167.259 98.267 166.886 100.13C166.615 101.654 167.225 104.263 170.206 104.263ZM193.646 91.899L190.597 91.899L191.512 87.0552L187.244 87.0552L186.905 88.9182C186.533 91.0521 185.178 91.6957 183.416 91.899L183.349 91.899L182.637 95.5911L185.042 95.5911L182.705 108.192L187.583 108.192L189.92 95.5911L193.036 95.5911L193.646 91.899ZM214.173 85.5309L219.05 85.5309L217.56 93.6265L217.662 93.6265C218.712 92.1022 220.1 91.3231 222.268 91.3231C223.826 91.3231 225.588 91.899 226.401 93.1523C227.451 94.7443 227.349 96.1669 226.773 99.08L225.114 108.192L220.236 108.192L221.862 99.3171C221.997 98.538 222.472 95.8959 219.897 95.8959C217.154 95.8959 216.679 98.3348 216.544 99.1477L214.884 108.192L210.006 108.192L214.173 85.5309Z" fill="black"/>
</svg>
