<svg width="180" height="60" viewBox="0 0 180 60" fill="none" xmlns="http://www.w3.org/2000/svg">
<g clip-path="url(#clip0_8_111)">
<path d="M45 30C45 33.9782 43.4197 37.7936 40.6066 40.6066C37.7936 43.4197 33.9782 45 30 45C26.0218 45 22.2064 43.4197 19.3934 40.6066C16.5804 37.7936 15 33.9782 15 30H12C12 34.7739 13.8964 39.3523 17.2721 42.7279C20.6477 46.1036 25.2261 48 30 48C34.7739 48 39.3523 46.1036 42.7279 42.7279C46.1036 39.3523 48 34.7739 48 30H45Z" fill="white"/>
<mask id="mask0_8_111" style="mask-type:alpha" maskUnits="userSpaceOnUse" x="12" y="30" width="36" height="18">
<path d="M12 30C12 34.7739 13.8964 39.3523 17.2721 42.7279C20.6477 46.1036 25.2261 48 30 48C34.7739 48 39.3523 46.1036 42.7279 42.7279C46.1036 39.3523 48 34.7739 48 30C34.2678 30 16.8767 30 12 30Z" fill="#005075"/>
</mask>
<g mask="url(#mask0_8_111)">
<path d="M49.2 48H41.4L35.4 30H40.2L49.2 48Z" fill="white"/>
<path d="M34.2 48H25.8L27.6 30H32.4L34.2 48Z" fill="white"/>
<path d="M10.8 48H18.6L24.6 30H19.8L10.8 48Z" fill="white"/>
</g>
<path opacity="0.6" fill-rule="evenodd" clip-rule="evenodd" d="M27.6 12V30H32.4V12V6L27.6 9V12ZM48 28.95V28.626C48 28.4145 47.9734 28.2074 47.9469 28.001L47.934 27.9C47.934 27.8241 47.922 27.7506 47.9101 27.678C47.9032 27.6358 47.8964 27.5939 47.892 27.552C47.856 27.306 47.82 27.066 47.772 26.82C47.772 26.724 47.772 26.628 47.724 26.532C47.5924 25.8523 47.42 25.1811 47.208 24.522C47.208 24.48 47.208 24.444 47.166 24.402C47.07 24.11 46.968 23.822 46.86 23.538C46.86 23.5002 46.8394 23.4624 46.8188 23.4246C46.81 23.4084 46.8012 23.3922 46.794 23.376L46.758 23.285C46.6548 23.0234 46.5468 22.7497 46.434 22.524C46.4175 22.4952 46.4035 22.4651 46.392 22.434C45.0143 19.5055 42.8759 17.0004 40.2 15.18C38.7259 14.1645 37.1079 13.3758 35.4 12.84V30H40.2V19.02C41.7143 20.42 42.9225 22.1182 43.7486 24.0079C44.5747 25.8975 45.0007 27.9377 45 30H48V28.95ZM13.668 22.434C15.0291 19.5128 17.1461 17.0084 19.8 15.18V15.168C21.2741 14.1525 22.8921 13.3638 24.6 12.828V30H19.8V19.02C18.2857 20.42 17.0775 22.1182 16.2514 24.0079C15.4253 25.8975 14.9993 27.9377 15 30H12C12 29.646 12 29.298 12.03 28.95C12.06 28.842 12.06 28.734 12.06 28.626C12.078 28.38 12.096 28.14 12.126 27.9C12.1306 27.8535 12.138 27.8079 12.1453 27.7629C12.1567 27.6917 12.168 27.6218 12.168 27.552C12.204 27.306 12.24 27.066 12.288 26.82C12.2928 26.7816 12.3014 26.7432 12.3101 26.7048C12.323 26.6472 12.336 26.5896 12.336 26.532C12.4676 25.8523 12.64 25.1811 12.852 24.522C12.894 24.48 12.894 24.444 12.894 24.402C12.99 24.11 13.092 23.822 13.2 23.538C13.2069 23.5172 13.2183 23.4965 13.2296 23.4757C13.2478 23.4425 13.266 23.4092 13.266 23.376C13.38 23.088 13.5 22.8 13.626 22.524C13.6425 22.4952 13.6565 22.4651 13.668 22.434Z" fill="white"/>
<path fill-rule="evenodd" clip-rule="evenodd" d="M136.938 17.8194C137.741 17.8 138.53 18.0261 139.2 18.4674C139.854 18.9066 140.39 19.5001 140.76 20.1954L143.844 19.3074C143.246 17.9642 142.286 16.8134 141.072 15.9834C139.863 15.1485 138.425 14.7102 136.956 14.7294C134.906 14.7325 132.941 15.5484 131.491 16.9981C130.041 18.4478 129.225 20.4131 129.222 22.4634C129.224 23.4774 129.425 24.4813 129.815 25.4175C130.204 26.3538 130.774 27.2042 131.492 27.9201C132.211 28.6361 133.063 29.2035 134 29.5902C134.938 29.9768 135.942 30.1749 136.956 30.1734C138.418 30.1983 139.853 29.78 141.072 28.9734C142.282 28.1596 143.237 27.0196 143.826 25.6854L140.694 24.8454C140.364 25.5496 139.833 26.1406 139.168 26.5441C138.503 26.9476 137.733 27.1456 136.956 27.1134C136.358 27.1279 135.764 27.0175 135.211 26.7892C134.658 26.5609 134.159 26.2196 133.746 25.7874C133.324 25.3508 132.994 24.8348 132.773 24.2693C132.553 23.7038 132.447 23.1001 132.462 22.4934C132.447 21.8848 132.553 21.2793 132.773 20.7119C132.994 20.1444 133.324 19.6263 133.746 19.1874C134.152 18.748 134.646 18.399 135.196 18.1633C135.746 17.9276 136.34 17.8104 136.938 17.8194ZM80.2581 17.0093C81.7014 15.5605 83.659 14.7411 85.704 14.73C86.7197 14.7111 87.7284 14.9011 88.6676 15.2881C89.6068 15.6752 90.4565 16.251 91.164 16.98C91.894 17.6895 92.4725 18.5397 92.8644 19.4793C93.2563 20.4188 93.4535 21.4281 93.444 22.446V22.506C93.4587 23.5117 93.2671 24.5097 92.8812 25.4384C92.4952 26.3672 91.9231 27.207 91.2 27.906C90.4884 28.6341 89.6367 29.2104 88.6962 29.6002C87.7557 29.99 86.746 30.1852 85.728 30.174C83.681 30.1756 81.7172 29.3644 80.2681 27.9187C78.819 26.473 78.0032 24.511 78 22.464C78.0031 20.419 78.8149 18.4582 80.2581 17.0093ZM87.4505 26.8066C88.001 26.5728 88.4987 26.2305 88.914 25.8C89.7658 24.9061 90.2277 23.7105 90.198 22.476C90.2266 21.2365 89.7652 20.0356 88.914 19.134C88.5001 18.7013 88.0028 18.357 87.4521 18.1217C86.9014 17.8864 86.3088 17.7651 85.71 17.7651C85.1112 17.7651 84.5186 17.8864 83.9679 18.1217C83.4172 18.357 82.9199 18.7013 82.506 19.134C81.6526 20.0347 81.189 21.2356 81.216 22.476C81.1886 23.7112 81.6525 24.9067 82.506 25.8C82.9213 26.2305 83.419 26.5728 83.9695 26.8066C84.52 27.0405 85.1119 27.161 85.71 27.161C86.3081 27.161 86.9 27.0405 87.4505 26.8066ZM65.184 14.8792L70.26 26.8912V14.8792H73.434V29.9992H68.4L63.174 17.6032V29.9992H60V14.8792H65.184ZM102.606 21.6832L99.3178 14.8792H95.8618L101.004 25.3552V29.9992H104.268V25.2712L109.344 14.8792H105.888L102.606 21.6832ZM111.15 29.9992L116.292 14.8792H121.2L126.252 29.9992H122.904L121.932 26.9992H115.518L114.522 29.9992H111.15ZM118.758 17.1232L116.466 24.0592H120.978L118.758 17.1232ZM161.532 14.8792L155.334 21.8752L161.706 29.9992H157.71L153.216 24.2752L151.446 26.2852V29.9992H148.182V14.8792H151.446V21.9232L157.536 14.8792H161.532Z" fill="white"/>
<path opacity="0.6" fill-rule="evenodd" clip-rule="evenodd" d="M64.4402 37.1993H64.4822C65.2078 37.1839 65.9204 37.3935 66.5222 37.7993C67.1124 38.2138 67.5773 38.7825 67.8662 39.4433L69.0662 39.0953C68.6947 38.1832 68.0701 37.3962 67.2662 36.8273C66.4537 36.261 65.4845 35.9631 64.4942 35.9753C63.8238 35.9642 63.1582 36.0911 62.5389 36.3481C61.9196 36.6051 61.3598 36.9867 60.8942 37.4693C59.9456 38.4467 59.415 39.7552 59.415 41.1173C59.415 42.4794 59.9456 43.7879 60.8942 44.7653C61.3576 45.2514 61.9168 45.6363 62.5364 45.8955C63.156 46.1547 63.8227 46.2826 64.4942 46.2713C65.4873 46.2838 66.4591 45.9836 67.2722 45.4133C68.0744 44.8476 68.6987 44.065 69.0722 43.1573L67.8722 42.8273C67.5921 43.4867 67.1301 44.0527 66.5402 44.4593C65.9391 44.8665 65.2261 45.0762 64.5002 45.0593C63.9899 45.0727 63.4826 44.9775 63.0119 44.7799C62.5413 44.5823 62.118 44.2869 61.7702 43.9133C61.0712 43.1499 60.6834 42.1524 60.6834 41.1173C60.6834 40.0822 61.0712 39.0846 61.7702 38.3213C62.1117 37.9575 62.5259 37.6696 62.9859 37.4763C63.4459 37.283 63.9414 37.1886 64.4402 37.1993ZM74.2202 36.1193L70.4582 46.1993H71.7842L72.7082 43.7993H77.8502L78.7382 46.1993H80.0642L76.3802 36.1193H74.2202ZM73.0982 42.6413L75.3002 36.5993L77.4602 42.6473L73.0982 42.6413ZM82.146 36.1198H86.526C86.9561 36.1019 87.385 36.1767 87.7836 36.3393C88.1821 36.5018 88.5411 36.7482 88.836 37.0618C89.4078 37.7001 89.7239 38.5269 89.7239 39.3838C89.7239 40.2407 89.4078 41.0675 88.836 41.7058C88.5375 42.0176 88.1761 42.2623 87.7757 42.4237C87.3754 42.5851 86.9453 42.6594 86.514 42.6418H83.4V46.1998H82.146V36.1198ZM87.2764 41.3452C87.5376 41.2416 87.773 41.082 87.966 40.8778C88.3263 40.4603 88.5168 39.9229 88.5 39.3718C88.5206 38.8226 88.327 38.2869 87.96 37.8778C87.7651 37.6744 87.5286 37.5154 87.2666 37.4119C87.0046 37.3083 86.7233 37.2626 86.442 37.2778H83.4V41.4778H86.454C86.7345 41.4941 87.0152 41.4489 87.2764 41.3452ZM93.2702 36.1193H92.0042V46.1993H93.2702V36.1193ZM98.8022 37.3013H95.3582V36.1193H103.392V37.3013H100.056V46.1993H98.8022V37.3013ZM107.4 36.1193L103.614 46.1993H104.94L105.858 43.7993H111L111.894 46.1993H113.22L109.53 36.1193H107.4ZM106.278 42.6413L108.45 36.5993L110.61 42.6473L106.278 42.6413ZM116.568 36.1193V45.0173H121.764V46.1993H115.302V36.1193H116.568Z" fill="white"/>
</g>
<defs>
<clipPath id="clip0_8_111">
<rect width="180" height="60" fill="white"/>
</clipPath>
</defs>
</svg>
